<svg xmlns="http://www.w3.org/2000/svg" viewBox="0 0 500 780">
  <style>
    text { font-family: Arial, sans-serif; font-size: 14px; }
    .title { font-size: 18px; font-weight: bold; }
    .subtitle { font-size: 12px; font-style: italic; }
    rect { fill: #f0f0f0; stroke: #000; stroke-width: 1; }
  </style>
  
  <!-- Main container -->
  <rect x="50" y="10" width="400" height="730" fill="#fff" stroke="#000" stroke-width="2"/>

  <!-- Title -->
  <text x="250" y="40" text-anchor="middle" class="title">XBCrypt Chunk Structure</text>
  
  <!-- Header section -->
  <rect x="60" y="60" width="380" height="320" fill="none" stroke="#000" stroke-width="2"/>
  <text x="70" y="80" class="subtitle" font-weight="bold">Header:</text>
  
  <rect x="70" y="90" width="360" height="30"/>
  <text x="80" y="110">Magic (8 bytes)</text>
  <text x="300" y="110" class="subtitle">XBCRYP01/02/03</text>
  
  <rect x="70" y="130" width="360" height="30"/>
  <text x="80" y="150">Reserved (8 bytes)</text>
  
  <rect x="70" y="170" width="360" height="30"/>
  <text x="80" y="190">Original Size (8 bytes)</text>
  <text x="300" y="190" class="subtitle">uint64</text>
  
  <rect x="70" y="210" width="360" height="30"/>
  <text x="80" y="230">Encrypted Size (8 bytes)</text>
  <text x="300" y="230" class="subtitle">uint64</text>
  
  <rect x="70" y="250" width="360" height="30"/>
  <text x="80" y="270">Checksum (4 bytes)</text>
  <text x="300" y="270" class="subtitle">uint32</text>
  
  <rect x="70" y="290" width="360" height="30"/>
  <text x="80" y="310">IV Size (8 bytes)</text>
  <text x="300" y="310" class="subtitle">uint64</text>
  
  <rect x="70" y="330" width="360" height="30"/>
  <text x="80" y="350">IV (variable size)</text>
  <text x="300" y="350" class="subtitle">[]byte</text>
  
  <!-- Encrypted section -->
  <rect x="60" y="390" width="380" height="120" fill="none" stroke="#000" stroke-width="2"/>
  <text x="70" y="410" class="subtitle" font-weight="bold">Encrypted:</text>
  
  <rect x="70" y="420" width="360" height="30"/>
  <text x="80" y="440">Encrypted Data (variable size)</text>
  <text x="300" y="440" class="subtitle">[]byte</text>
  
  <rect x="70" y="460" width="360" height="40"/>
  <text x="80" y="480">Encrypted Hash (32 bytes,</text>
  <text x="80" y="495">if Version > 2)</text>
  <text x="300" y="488" class="subtitle">[32]byte</text>
  
  <!-- Constants -->
  <text x="60" y="540" class="subtitle">Constants:</text>
  <text x="60" y="560" class="subtitle">MagicLen = 8 bytes</text>
  <text x="60" y="580" class="subtitle">ReservedBytesSize = 8 bytes</text>
  <text x="60" y="600" class="subtitle">OriginalSizeBytesSize = 8 bytes</text>
  <text x="60" y="620" class="subtitle">EncryptedSizeBytesSize = 8 bytes</text>
  <text x="60" y="640" class="subtitle">ChecksumBytesSize = 4 bytes</text>
  <text x="60" y="660" class="subtitle">IVSizeBytesSize = 8 bytes</text>
  <text x="60" y="680" class="subtitle">ChunkHeaderFixSize = 32 bytes</text>
  <text x="60" y="700" class="subtitle">XBCryptHashLen = 32 bytes</text>
  
  <!-- Footer -->
  <text x="250" y="730" text-anchor="middle" class="subtitle">Total size: Header (variable) + Payload (variable)</text>
</svg>